<?xml version="1.0" standalone="no"?>
<!DOCTYPE svg PUBLIC "-//W3C//DTD SVG 20010904//EN"
 "http://www.w3.org/TR/2001/REC-SVG-20010904/DTD/svg10.dtd">
<svg version="1.0" xmlns="http://www.w3.org/2000/svg"
 width="506.000000pt" height="506.000000pt" viewBox="0 0 506.000000 506.000000"
 preserveAspectRatio="xMidYMid meet">
<metadata>
Created by potrace 1.11, written by Peter Selinger 2001-2013
</metadata>
<g transform="translate(0.000000,506.000000) scale(0.100000,-0.100000)"
fill="#000000" stroke="none">
<path d="M2329 4746 c-2 -2 -33 -7 -68 -10 -35 -4 -67 -8 -70 -10 -3 -2 -28
-7 -56 -10 -98 -13 -304 -73 -402 -117 -170 -76 -261 -126 -395 -217 -241
-164 -414 -340 -572 -582 -162 -247 -263 -490 -310 -745 -9 -49 -21 -115 -27
-145 -35 -193 -15 -536 45 -780 52 -212 157 -447 290 -650 256 -391 648 -695
1086 -840 256 -85 389 -105 680 -105 301 0 459 27 721 120 395 141 735 397
995 750 163 222 318 569 359 810 4 22 9 51 12 65 35 179 35 526 -1 710 -2 8
-6 33 -10 55 -79 413 -282 784 -600 1100 -144 144 -293 255 -461 345 -33 18
-76 40 -95 51 -147 78 -370 152 -545 179 -38 6 -81 13 -95 17 -28 6 -475 15
-481 9z"/>
</g>
</svg>
